<svg width="29" height="32" viewBox="0 0 29 32" fill="none" xmlns="http://www.w3.org/2000/svg">
<path d="M5.60456 27.492C4.71839 27.3358 4.12667 26.4907 4.28293 25.6046V25.6046C4.43918 24.7184 5.28424 24.1267 6.17041 24.2829L21.9242 27.0607V27.0607C22.6481 27.1884 23.1315 27.8788 23.0039 28.6027L22.8942 29.2246C22.7699 29.9295 22.0977 30.4002 21.3927 30.2759V30.2759L5.60456 27.492Z" fill="#A9A9A9"/>
<path d="M6.17042 30.2181C5.28424 30.3743 4.43919 29.7826 4.28293 28.8964V28.8964C4.12667 28.0103 4.71839 27.1652 5.60456 27.0089L21.3583 24.2311V24.2311C22.0823 24.1035 22.7726 24.5869 22.9003 25.3108L23.0099 25.9327C23.1342 26.6376 22.6635 27.3099 21.9586 27.4342V27.4342L6.17042 30.2181Z" fill="#A9A9A9"/>
<path d="M20.3554 24.4241L23.2328 19.5127C24.3455 17.6135 22.8869 15.2417 20.6899 15.378C19.7408 15.4368 18.8287 15.0012 18.2779 14.226L16.767 12.0994C16.4062 11.5916 16.1106 11.0406 15.8871 10.4591L12.9841 2.90627C12.9489 2.81477 12.9042 2.72725 12.8506 2.64517C12.1896 1.63269 10.6404 1.88895 10.3407 3.06036L6.90801 16.476C6.594 17.7032 6.59674 18.9901 6.916 20.216L7.28723 21.6415C8.07744 24.6758 10.6881 26.887 13.8111 27.167L14.8501 27.2602C17.0794 27.4601 19.2239 26.3554 20.3554 24.4241Z" fill="#FFA07A"/>
<path d="M18.4839 22.6885L19.9898 20.1182C20.8568 18.6384 19.7202 16.7904 18.0084 16.8965C17.5563 16.9245 17.107 16.8086 16.7249 16.5653L16.2222 16.2452C15.4263 15.7384 14.8367 14.965 14.5587 14.0634L12.7348 8.14778C12.722 8.10625 12.7054 8.06596 12.6853 8.02743C12.3618 7.40697 11.4323 7.56899 11.3378 8.26231L10.1551 16.9397L10.1551 19.5855C10.1551 21.4915 11.3063 23.2088 13.0694 23.9329L13.8491 24.2532C15.5681 24.9592 17.5445 24.292 18.4839 22.6885Z" fill="#FFFFE0"/>
</svg>
